<svg xmlns="http://www.w3.org/2000/svg" version="1.1" xmlns:xlink="http://www.w3.org/1999/xlink" xmlns:svgjs="http://svgjs.dev/svgjs" width="1000" height="1125" viewBox="0 0 1000 1125"><g transform="matrix(1,0,0,1,0,0)"><svg viewBox="0 0 320 360" data-background-color="#ffffff" preserveAspectRatio="xMidYMid meet" height="1125" width="1000" xmlns="http://www.w3.org/2000/svg" xmlns:xlink="http://www.w3.org/1999/xlink"><g id="tight-bounds" transform="matrix(1,0,0,1,0,0)"><svg viewBox="0 0 320 360" height="360" width="320"><g><svg></svg></g><g><svg viewBox="0 0 320 360" height="360" width="320"><g><path xmlns="http://www.w3.org/2000/svg" d="M160 340c88.258 0 160-71.742 160-160 0-88.258-71.742-160-160-160-88.258 0-160 71.742-160 160 0 88.258 71.742 160 160 160zM165.161 329.368v-10.323c72.671-2.684 131.2-61.213 133.884-133.884h10.323c-2.684 78.452-65.755 141.523-144.207 144.207zM165.161 30.632c78.452 2.684 141.523 65.755 144.207 144.207h-10.323c-2.684-72.671-61.213-131.2-133.884-133.884zM289.032 180c0 71.123-57.91 129.032-129.032 129.032-71.123 0-129.032-57.91-129.032-129.032 0-71.123 57.91-129.032 129.032-129.032 71.123 0 129.032 57.91 129.032 129.032zM154.839 30.632v10.323c-72.671 2.684-131.2 61.213-133.884 133.884h-10.323c2.684-78.452 65.755-141.523 144.207-144.207zM20.955 185.161c2.684 72.671 61.213 131.2 133.884 133.884v10.323c-78.452-2.684-141.523-65.755-144.207-144.207z" fill="#89939e" fill-rule="nonzero" stroke="none" stroke-width="1" stroke-linecap="butt" stroke-linejoin="miter" stroke-miterlimit="10" stroke-dasharray="" stroke-dashoffset="0" font-family="none" font-weight="none" font-size="none" text-anchor="none" style="mix-blend-mode: normal" data-fill-palette-color="tertiary"></path></g><g transform="matrix(1,0,0,1,120.00939815661633,90)"><svg viewBox="0 0 79.98120368676733 180" height="180" width="79.98120368676733"><g><svg viewBox="0 0 179.75 404.5325465057116" height="180" width="79.98120368676733"><g transform="matrix(1,0,0,1,0,224.53254650571157)"><svg viewBox="0 0 179.75 180" height="180" width="179.75"><g id="textblocktransform"><svg viewBox="0 0 179.75 180" height="180" width="179.75" id="textblock"><g><svg viewBox="0 0 179.75 180" height="180" width="179.75"><g transform="matrix(1,0,0,1,0,0)"><svg width="179.75" viewBox="1.5 -35.5 35.95000076293945 36" height="180" data-palette-color="#89939e"><path d="M10.9 0.5L10.9 0.5Q8.4 0.5 6.6-0.25 4.8-1 3.68-2.85 2.55-4.7 2.02-8.08 1.5-11.45 1.5-16.7L1.5-16.7Q1.5-22.6 2.25-26.28 3-29.95 4.4-31.98 5.8-34 7.78-34.75 9.75-35.5 12.25-35.5L12.25-35.5Q14.7-35.5 16.13-34.73 17.55-33.95 17.55-32.95L17.55-32.95Q17.55-32.25 17.4-31.58 17.25-30.9 17.05-30.3L17.05-30.3Q16.4-30.85 15.35-31.18 14.3-31.5 13.05-31.5L13.05-31.5Q11.15-31.5 9.78-30.8 8.4-30.1 7.53-28.45 6.65-26.8 6.25-24 5.85-21.2 5.85-17L5.85-17Q5.85-12.55 6.18-9.85 6.5-7.15 7.18-5.78 7.85-4.4 8.83-3.95 9.8-3.5 11-3.5L11-3.5Q11.9-3.5 12.5-3.7 13.1-3.9 13.48-4.2 13.85-4.5 13.95-4.7L13.95-4.7 13.95-17.15 10.25-17.15 10.25-19.7Q10.25-20.55 11.2-20.55L11.2-20.55 17.75-20.55 17.75-1.75Q17.15-1.25 16.23-0.73 15.3-0.2 13.98 0.15 12.65 0.5 10.9 0.5ZM27.7 0L21.45 0 21.45-34.05Q21.45-34.5 21.72-34.75 22-35 22.8-35L22.8-35 27.65-35Q30.1-35 31.95-34.25 33.8-33.5 35-31.73 36.2-29.95 36.82-26.9 37.45-23.85 37.45-19.3L37.45-19.3Q37.45-13.8 36.8-10.08 36.15-6.35 34.87-4.15 33.6-1.95 31.8-0.98 30 0 27.7 0L27.7 0ZM25.5-31.25L25.5-3.85 27.75-3.85Q28.75-3.85 29.65-4.4 30.55-4.95 31.27-6.58 32-8.2 32.42-11.35 32.85-14.5 32.85-19.7L32.85-19.7Q32.85-23.15 32.52-25.4 32.2-27.65 31.57-28.95 30.95-30.25 30-30.75 29.05-31.25 27.8-31.25L27.8-31.25 25.5-31.25Z" opacity="1" transform="matrix(1,0,0,1,0,0)" fill="#89939e" class="undefined-text-0" data-fill-palette-color="primary" id="text-0"></path></svg></g></svg></g></svg></g></svg></g><g transform="matrix(1,0,0,1,6.560874999999996,0)"><svg viewBox="0 0 166.62825 182.03886650571155" height="182.03886650571155" width="166.62825"><g><svg xmlns="http://www.w3.org/2000/svg" data-name="Layer 1" viewBox="4.081660747528076 1 56.75135040283203 62" x="0" y="0" height="182.03886650571155" width="166.62825" class="icon-icon-0" data-fill-palette-color="accent" id="icon-0"><path d="M43 34.348a3.486 3.486 0 0 0-1.022-2.455 4.218 4.218 0 0 0 0.113-0.973 4.57 4.57 0 0 0-5.316-4.377A5.624 5.624 0 0 0 32 23.92a5.558 5.558 0 0 0-5.214 3.486 3.624 3.624 0 0 0-3.058 3.501A3.606 3.606 0 0 0 21 34.348a3.656 3.656 0 0 0 3.728 3.572H39.272A3.656 3.656 0 0 0 43 34.348ZM37.534 32.15a4.005 4.005 0 0 0-2.618 3.77H24.728A1.657 1.657 0 0 1 23 34.348 1.595 1.595 0 0 1 24.168 32.864v0.054a1.971 1.971 0 0 1 1.937 2h2a4.001 4.001 0 0 0-2.301-3.628 1.413 1.413 0 0 1-0.076-0.37 1.641 1.641 0 0 1 1.637-1.577c0.035 0.005 0.112 0.012 0.148 0.014a0.982 0.982 0 0 0 1.01-0.791A3.496 3.496 0 0 1 32 25.92a3.619 3.619 0 0 1 2.916 1.455v0.859a1.66 1.66 0 0 1-1.629 1.686H32v2h1.287A3.644 3.644 0 0 0 36.883 28.566a2.615 2.615 0 0 1 0.571-0.075 2.542 2.542 0 0 1 2.637 2.429 2.227 2.227 0 0 1-0.193 0.905 0.999 0.999 0 0 0 0.373 1.243A1.538 1.538 0 0 1 41 34.348a1.657 1.657 0 0 1-1.728 1.572H36.916a2 2 0 0 1 1.298-1.889Z" fill="#89939e" data-fill-palette-color="accent"></path><path d="M5.153 47.5c1.807 3.127 5.67 4.791 11.011 4.791q1.203 0 2.503-0.113c0.58-0.051 1.176-0.136 1.772-0.22C23.169 58.745 27.299 63 32 63c2.513 0 4.957-1.263 7.114-3.633a2.961 2.961 0 0 0 0.953 0.17 3.003 3.003 0 0 0 3-3 2.973 2.973 0 0 0-0.739-1.951q0.638-1.248 1.198-2.632c0.608 0.086 1.216 0.172 1.807 0.224q1.299 0.114 2.503 0.113c5.34 0 9.204-1.664 11.011-4.791 2.076-3.596 1.115-8.583-2.705-14.041-0.339-0.484-0.716-0.966-1.093-1.447A30.621 30.621 0 0 0 57.54 28.321a2.937 2.937 0 0 0 0.293 0.03 2.989 2.989 0 0 0 1.823-5.365A8.967 8.967 0 0 0 58.847 16.5c-2.077-3.597-6.878-5.259-13.514-4.678-0.58 0.051-1.176 0.136-1.772 0.22C40.831 5.255 36.701 1 32 1c-4.697 0-8.825 4.25-11.555 11.028a30.648 30.648 0 0 0-4.308-0.304 2.985 2.985 0 0 0-5.696 0.803A9.121 9.121 0 0 0 5.153 16.5C3.077 20.096 4.038 25.083 7.858 30.541c0.342 0.488 0.722 0.974 1.102 1.459-0.38 0.485-0.76 0.971-1.102 1.459C4.038 38.917 3.077 43.904 5.153 47.5Zm14.68-5.486c1.489 1.037 3.043 2.035 4.667 2.972 1.628 0.94 3.273 1.79 4.92 2.562a46.112 46.112 0 0 1-7.626 2.16A47.183 47.183 0 0 1 19.833 42.014ZM19.431 39.252a61.231 61.231 0 0 1 0-14.504 61.271 61.271 0 0 1 12.572-7.259A61.284 61.284 0 0 1 38.5 20.746a62.195 62.195 0 0 1 6.069 4.002A60.806 60.806 0 0 1 45 32a62.03 62.03 0 0 1-0.424 7.248A61.544 61.544 0 0 1 38.5 43.254a62.222 62.222 0 0 1-6.5 3.255A62.21 62.21 0 0 1 25.5 43.254 62.185 62.185 0 0 1 19.431 39.252ZM40.067 57.537a1 1 0 1 1 1-1A1.001 1.001 0 0 1 40.067 57.537Zm0.525-3.947a2.985 2.985 0 0 0-3.054 4.544A7.742 7.742 0 0 1 32 61c-3.695 0-7.088-3.656-9.481-9.396a50.334 50.334 0 0 0 9.481-2.919 50.294 50.294 0 0 0 9.505 2.923Q41.072 52.641 40.592 53.59Zm1.648-3.875a46.063 46.063 0 0 1-7.659-2.167c1.646-0.772 3.292-1.621 4.919-2.562 1.63-0.941 3.193-1.936 4.681-2.972A46.494 46.494 0 0 1 42.24 49.715ZM57.114 46.5c-1.666 2.885-5.793 4.194-11.607 3.685-0.414-0.036-0.844-0.103-1.267-0.157a50.827 50.827 0 0 0 2.214-9.679 50.298 50.298 0 0 0 7.286-6.752c0.256 0.336 0.526 0.672 0.763 1.009C57.853 39.392 58.78 43.616 57.114 46.5Zm-10.347-20.029a46.085 46.085 0 0 1 5.688 5.533 47.088 47.088 0 0 1-5.696 5.533C46.915 35.724 47 33.874 47 32 47 30.107 46.917 28.262 46.767 26.471ZM58.833 25.351a1 1 0 1 1-1-1A1.001 1.001 0 0 1 58.833 25.351ZM45.507 13.815c5.825-0.507 9.941 0.801 11.607 3.685a6.941 6.941 0 0 1 0.635 4.86 2.993 2.993 0 0 0-2.03 5.117 28.082 28.082 0 0 1-1.987 2.949 50.295 50.295 0 0 0-7.263-6.754 50.367 50.367 0 0 0-2.197-9.704C44.684 13.916 45.103 13.85 45.507 13.815Zm-1.34 8.171c-1.489-1.037-3.042-2.035-4.666-2.972-1.627-0.941-3.268-1.797-4.907-2.567a46.099 46.099 0 0 1 7.613-2.156A47.172 47.172 0 0 1 44.167 21.986ZM32 3c3.695 0 7.088 3.656 9.481 9.396a50.321 50.321 0 0 0-9.467 2.912 50.121 50.121 0 0 0-9.486-2.934C24.921 6.647 28.309 3 32 3ZM21.794 14.289a47.008 47.008 0 0 1 7.625 2.163c-1.646 0.772-3.291 1.621-4.919 2.562-1.624 0.937-3.178 1.936-4.667 2.972A47.176 47.176 0 0 1 21.794 14.289Zm-8.394-2.359a1.007 1.007 0 0 1 0.995 0.898l0.009-0.001a0.99 0.99 0 0 0-0.004 0.103 1 1 0 0 1-1.984 0.173l-0.003-0.008 0.001 0a0.908 0.908 0 0 1-0.014-0.165A1.001 1.001 0 0 1 13.4 11.93ZM6.886 17.5a6.956 6.956 0 0 1 3.95-3.006 3.003 3.003 0 0 0 5.46-0.777 28.136 28.136 0 0 1 3.435 0.243 50.359 50.359 0 0 0-2.2 9.712 50.3 50.3 0 0 0-7.258 6.748c-0.26-0.342-0.535-0.683-0.776-1.026C6.147 24.608 5.22 20.384 6.886 17.5Zm10.347 20.029A46.089 46.089 0 0 1 11.548 32a46.085 46.085 0 0 1 5.685-5.529C17.083 28.262 17 30.107 17 32 17 33.893 17.083 35.738 17.233 37.529ZM9.497 34.606c0.24-0.343 0.515-0.684 0.775-1.026a50.293 50.293 0 0 0 7.259 6.748 50.373 50.373 0 0 0 2.197 9.704c-0.412 0.052-0.831 0.118-1.235 0.153-5.821 0.51-9.941-0.801-11.607-3.685S6.147 39.392 9.497 34.606Z" fill="#89939e" data-fill-palette-color="accent"></path></svg></g></svg></g><g></g></svg></g></svg></g></svg></g><defs></defs></svg><rect width="320" height="360" fill="none" stroke="none" visibility="hidden"></rect></g></svg></g></svg>